<svg xmlns="http://www.w3.org/2000/svg" width="1200" height="520" viewBox="0 0 1200 520">
  <rect width="1200" height="520" fill="#f8fafc"/>
  <text x="42" y="55" font-family="Arial" font-size="28" font-weight="700" fill="#111827">CASLR Framework</text>
  <g font-family="Arial" font-size="17">
    <rect x="60" y="125" width="180" height="90" rx="10" fill="#e0f2fe" stroke="#0284c7"/><text x="105" y="176">Queries</text>
    <path d="M250 170 L355 170" stroke="#111827" stroke-width="3" marker-end="url(#a)"/>
    <rect x="365" y="125" width="190" height="90" rx="10" fill="#dcfce7" stroke="#16a34a"/><text x="405" y="166">Embedding</text><text x="418" y="190">BGE / encoder</text>
    <path d="M565 170 L670 170" stroke="#111827" stroke-width="3" marker-end="url(#a)"/>
    <rect x="680" y="125" width="190" height="90" rx="10" fill="#fef3c7" stroke="#d97706"/><text x="735" y="166">KMeans</text><text x="714" y="190">task clusters</text>
    <path d="M880 170 L985 170" stroke="#111827" stroke-width="3" marker-end="url(#a)"/>
    <rect x="995" y="125" width="160" height="90" rx="10" fill="#fae8ff" stroke="#a21caf"/><text x="1025" y="176">Utilities</text>
    <rect x="260" y="320" width="240" height="100" rx="10" fill="#fff7ed" stroke="#ea580c"/><text x="302" y="363">Masked Softmax</text><text x="302" y="390">zero failed experts</text>
    <rect x="590" y="320" width="220" height="100" rx="10" fill="#ede9fe" stroke="#7c3aed"/><text x="635" y="363">BERT Router</text><text x="626" y="390">soft-label training</text>
    <rect x="900" y="320" width="210" height="100" rx="10" fill="#fee2e2" stroke="#dc2626"/><text x="950" y="363">Inference</text><text x="932" y="390">select expert</text>
    <path d="M1075 220 C980 300 760 315 710 320" fill="none" stroke="#111827" stroke-width="3" marker-end="url(#a)"/>
    <path d="M505 370 L580 370" stroke="#111827" stroke-width="3" marker-end="url(#a)"/>
    <path d="M815 370 L890 370" stroke="#111827" stroke-width="3" marker-end="url(#a)"/>
  </g>
  <defs><marker id="a" markerWidth="10" markerHeight="10" refX="9" refY="3" orient="auto"><path d="M0,0 L0,6 L9,3 z" fill="#111827"/></marker></defs>
</svg>
